  0
SECTION
  2
HEADER
  9
$ACADVER
  1
AC1015
  9
$ACADMAINTVER
 70
     6
  9
$DWGCODEPAGE
  3
ANSI_1252
  9
$INSBASE
 10
0.0
 20
0.0
 30
0.0
  9
$EXTMIN
 10
-659.9467589731
 20
-0.5983148025
 30
0.0
  9
$EXTMAX
 10
647.3493726232
 20
972.5006800117
 30
0.0
  9
$LIMMIN
 10
0.0
 20
0.0
  9
$LIMMAX
 10
420.0
 20
297.0
  9
$ORTHOMODE
 70
     0
  9
$REGENMODE
 70
     1
  9
$FILLMODE
 70
     1
  9
$QTEXTMODE
 70
     0
  9
$MIRRTEXT
 70
     1
  9
$LTSCALE
 40
1.0
  9
$ATTMODE
 70
     1
  9
$TEXTSIZE
 40
3.175
  9
$TRACEWID
 40
1.0
  9
$TEXTSTYLE
  7
Standard
  9
$CLAYER
  8
0
  9
$CELTYPE
  6
ByLayer
  9
$CECOLOR
 62
   256
  9
$CELTSCALE
 40
1.0
  9
$DISPSILH
 70
     0
  9
$DIMSCALE
 40
1.0
  9
$DIMASZ
 40
3.302
  9
$DIMEXO
 40
0.0
  9
$DIMDLI
 40
3.75
  9
$DIMRND
 40
0.0
  9
$DIMDLE
 40
0.0
  9
$DIMEXE
 40
3.175
  9
$DIMTP
 40
0.0
  9
$DIMTM
 40
0.0
  9
$DIMTXT
 40
3.175
  9
$DIMCEN
 40
2.5
  9
$DIMTSZ
 40
0.0
  9
$DIMTOL
 70
     0
  9
$DIMLIM
 70
     0
  9
$DIMTIH
 70
     1
  9
$DIMTOH
 70
     1
  9
$DIMSE1
 70
     0
  9
$DIMSE2
 70
     0
  9
$DIMTAD
 70
     0
  9
$DIMZIN
 70
     1
  9
$DIMBLK
  1

  9
$DIMASO
 70
     1
  9
$DIMSHO
 70
     1
  9
$DIMPOST
  1

  9
$DIMAPOST
  1

  9
$DIMALT
 70
     0
  9
$DIMALTD
 70
     3
  9
$DIMALTF
 40
0.0393700787
  9
$DIMLFAC
 40
1.0
  9
$DIMTOFL
 70
     1
  9
$DIMTVP
 40
0.0
  9
$DIMTIX
 70
     0
  9
$DIMSOXD
 70
     0
  9
$DIMSAH
 70
     0
  9
$DIMBLK1
  1

  9
$DIMBLK2
  1

  9
$DIMSTYLE
  2
ISO-25
  9
$DIMCLRD
 70
     0
  9
$DIMCLRE
 70
     0
  9
$DIMCLRT
 70
     0
  9
$DIMTFAC
 40
1.0
  9
$DIMGAP
 40
1.524
  9
$DIMJUST
 70
     0
  9
$DIMSD1
 70
     0
  9
$DIMSD2
 70
     0
  9
$DIMTOLJ
 70
     0
  9
$DIMTZIN
 70
     1
  9
$DIMALTZ
 70
     0
  9
$DIMALTTZ
 70
     0
  9
$DIMUPT
 70
     0
  9
$DIMDEC
 70
     2
  9
$DIMTDEC
 70
     2
  9
$DIMALTU
 70
     2
  9
$DIMALTTD
 70
     3
  9
$DIMTXSTY
  7
Standard
  9
$DIMAUNIT
 70
     0
  9
$DIMADEC
 70
     2
  9
$DIMALTRND
 40
0.0
  9
$DIMAZIN
 70
     0
  9
$DIMDSEP
 70
    44
  9
$DIMATFIT
 70
     3
  9
$DIMFRAC
 70
     0
  9
$DIMLDRBLK
  1

  9
$DIMLUNIT
 70
     2
  9
$DIMLWD
 70
    -2
  9
$DIMLWE
 70
    -2
  9
$DIMTMOVE
 70
     0
  9
$LUNITS
 70
     2
  9
$LUPREC
 70
     6
  9
$SKETCHINC
 40
1.0
  9
$FILLETRAD
 40
0.0
  9
$AUNITS
 70
     0
  9
$AUPREC
 70
     2
  9
$MENU
  1
.
  9
$ELEVATION
 40
0.0
  9
$PELEVATION
 40
0.0
  9
$THICKNESS
 40
0.0
  9
$LIMCHECK
 70
     0
  9
$CHAMFERA
 40
0.0
  9
$CHAMFERB
 40
0.0
  9
$CHAMFERC
 40
0.0
  9
$CHAMFERD
 40
0.0
  9
$SKPOLY
 70
     0
  9
$TDCREATE
 40
2460253.619411146
  9
$TDUCREATE
 40
2460253.911077813
  9
$TDUPDATE
 40
2460253.619437223
  9
$TDUUPDATE
 40
2460253.911103889
  9
$TDINDWG
 40
0.0000000116
  9
$TDUSRTIMER
 40
0.0000000116
  9
$USRTIMER
 70
     1
  9
$ANGBASE
 50
0.0
  9
$ANGDIR
 70
     0
  9
$PDMODE
 70
     0
  9
$PDSIZE
 40
-1.0
  9
$PLINEWID
 40
0.0
  9
$SPLFRAME
 70
     0
  9
$SPLINETYPE
 70
     6
  9
$SPLINESEGS
 70
     8
  9
$HANDSEED
  5
69
  9
$SURFTAB1
 70
     6
  9
$SURFTAB2
 70
     6
  9
$SURFTYPE
 70
     6
  9
$SURFU
 70
     6
  9
$SURFV
 70
     6
  9
$UCSBASE
  2

  9
$UCSNAME
  2

  9
$UCSORG
 10
0.0
 20
0.0
 30
0.0
  9
$UCSXDIR
 10
1.0
 20
0.0
 30
0.0
  9
$UCSYDIR
 10
0.0
 20
1.0
 30
0.0
  9
$UCSORTHOREF
  2

  9
$UCSORTHOVIEW
 70
     0
  9
$UCSORGTOP
 10
0.0
 20
0.0
 30
0.0
  9
$UCSORGBOTTOM
 10
0.0
 20
0.0
 30
0.0
  9
$UCSORGLEFT
 10
0.0
 20
0.0
 30
0.0
  9
$UCSORGRIGHT
 10
0.0
 20
0.0
 30
0.0
  9
$UCSORGFRONT
 10
0.0
 20
0.0
 30
0.0
  9
$UCSORGBACK
 10
0.0
 20
0.0
 30
0.0
  9
$PUCSBASE
  2

  9
$PUCSNAME
  2

  9
$PUCSORG
 10
0.0
 20
0.0
 30
0.0
  9
$PUCSXDIR
 10
1.0
 20
0.0
 30
0.0
  9
$PUCSYDIR
 10
0.0
 20
1.0
 30
0.0
  9
$PUCSORTHOREF
  2

  9
$PUCSORTHOVIEW
 70
     0
  9
$PUCSORGTOP
 10
0.0
 20
0.0
 30
0.0
  9
$PUCSORGBOTTOM
 10
0.0
 20
0.0
 30
0.0
  9
$PUCSORGLEFT
 10
0.0
 20
0.0
 30
0.0
  9
$PUCSORGRIGHT
 10
0.0
 20
0.0
 30
0.0
  9
$PUCSORGFRONT
 10
0.0
 20
0.0
 30
0.0
  9
$PUCSORGBACK
 10
0.0
 20
0.0
 30
0.0
  9
$USERI1
 70
     0
  9
$USERI2
 70
     0
  9
$USERI3
 70
     0
  9
$USERI4
 70
     0
  9
$USERI5
 70
     0
  9
$USERR1
 40
0.0
  9
$USERR2
 40
0.0
  9
$USERR3
 40
0.0
  9
$USERR4
 40
0.0
  9
$USERR5
 40
0.0
  9
$WORLDVIEW
 70
     1
  9
$SHADEDGE
 70
     3
  9
$SHADEDIF
 70
    70
  9
$TILEMODE
 70
     1
  9
$MAXACTVP
 70
    64
  9
$PINSBASE
 10
0.0
 20
0.0
 30
0.0
  9
$PLIMCHECK
 70
     0
  9
$PEXTMIN
 10
1.0000000000E+20
 20
1.0000000000E+20
 30
1.0000000000E+20
  9
$PEXTMAX
 10
-1.0000000000E+20
 20
-1.0000000000E+20
 30
-1.0000000000E+20
  9
$PLIMMIN
 10
0.0
 20
0.0
  9
$PLIMMAX
 10
420.0
 20
297.0
  9
$UNITMODE
 70
     0
  9
$VISRETAIN
 70
     1
  9
$PLINEGEN
 70
     0
  9
$PSLTSCALE
 70
     1
  9
$TREEDEPTH
 70
  3020
  9
$CMLSTYLE
  2
Standard
  9
$CMLJUST
 70
     0
  9
$CMLSCALE
 40
20.0
  9
$PROXYGRAPHICS
 70
     1
  9
$MEASUREMENT
 70
     1
  9
$CELWEIGHT
370
    -1
  9
$ENDCAPS
280
     0
  9
$JOINSTYLE
280
     0
  9
$LWDISPLAY
290
     1
  9
$INSUNITS
 70
     4
  9
$HYPERLINKBASE
  1

  9
$STYLESHEET
  1

  9
$XEDIT
290
     1
  9
$CEPSNTYPE
380
     0
  9
$PSTYLEMODE
290
     1
  9
$FINGERPRINTGUID
  2
{eea7bd02-c8b9-4c66-935a-7b35a384487f}
  9
$VERSIONGUID
  2
{FAEB1C32-E019-11D5-929B-00C0DF256EC4}
  9
$EXTNAMES
290
     1
  9
$PSVPSCALE
 40
0.0
  9
$OLESTARTUP
290
     0
  0
ENDSEC
  0
SECTION
  2
CLASSES
  0
CLASS
  1
ACDBDICTIONARYWDFLT
  2
AcDbDictionaryWithDefault
  3
ObjectDBX Classes
 90
        0
280
     0
281
     0
  0
CLASS
  1
VISUALSTYLE
  2
AcDbVisualStyle
  3
ObjectDBX Classes
 90
     4095
280
     0
281
     0
  0
CLASS
  1
MATERIAL
  2
AcDbMaterial
  3
ObjectDBX Classes
 90
     1153
280
     0
281
     0
  0
CLASS
  1
SCALE
  2
AcDbScale
  3
ObjectDBX Classes
 90
     1153
280
     0
281
     0
  0
CLASS
  1
TABLESTYLE
  2
AcDbTableStyle
  3
ObjectDBX Classes
 90
     4095
280
     0
281
     0
  0
CLASS
  1
MLEADERSTYLE
  2
AcDbMLeaderStyle
  3
ACDB_MLEADERSTYLE_CLASS
 90
     4095
280
     0
281
     0
  0
CLASS
  1
SUN
  2
AcDbSun
  3
SCENEOE
 90
     1153
280
     0
281
     0
  0
CLASS
  1
ACDBPLACEHOLDER
  2
AcDbPlaceHolder
  3
ObjectDBX Classes
 90
        0
280
     0
281
     0
  0
CLASS
  1
LAYOUT
  2
AcDbLayout
  3
ObjectDBX Classes
 90
        0
280
     0
281
     0
  0
ENDSEC
  0
SECTION
  2
TABLES
  0
TABLE
  2
VPORT
  5
8
330
0
100
AcDbSymbolTable
 70
     1
  0
VPORT
  5
29
330
8
100
AcDbSymbolTableRecord
100
AcDbViewportTableRecord
  2
*Active
 70
     0
 10
0.0
 20
0.0
 11
1.0
 21
1.0
 12
-6.2986931749
 22
485.9511826046
 13
0.0
 23
0.0
 14
10.0
 24
10.0
 15
10.0
 25
10.0
 16
0.0
 26
0.0
 36
1.0
 17
0.0
 27
0.0
 37
0.0
 40
992.5609747105
 41
1.3434359079
 42
50.0
 43
0.0
 44
0.0
 50
0.0
 51
0.0
 71
     0
 72
   100
 73
     1
 74
     3
 75
     0
 76
     0
 77
     0
 78
     0
281
     0
 65
     1
110
0.0
120
0.0
130
0.0
111
1.0
121
0.0
131
0.0
112
0.0
122
1.0
132
0.0
 79
     0
146
0.0
  0
ENDTAB
  0
TABLE
  2
LTYPE
  5
5
330
0
100
AcDbSymbolTable
 70
     6
  0
LTYPE
  5
14
330
5
100
AcDbSymbolTableRecord
100
AcDbLinetypeTableRecord
  2
ByBlock
 70
     0
  3

 72
    65
 73
     0
 40
0.0
  0
LTYPE
  5
15
330
5
100
AcDbSymbolTableRecord
100
AcDbLinetypeTableRecord
  2
ByLayer
 70
     0
  3

 72
    65
 73
     0
 40
0.0
  0
LTYPE
  5
16
330
5
100
AcDbSymbolTableRecord
100
AcDbLinetypeTableRecord
  2
Continuous
 70
     0
  3
Solid line
 72
    65
 73
     0
 40
0.0
  0
LTYPE
  5
5E
330
5
100
AcDbSymbolTableRecord
100
AcDbLinetypeTableRecord
  2
HIDDEN
 70
     0
  3
Hidden __ __ __ __ __ __ __ __ __ __ __ __ __ __
 72
    65
 73
     2
 40
1.905
 49
1.27
 74
     0
 49
-0.635
 74
     0
  0
LTYPE
  5
5F
330
5
100
AcDbSymbolTableRecord
100
AcDbLinetypeTableRecord
  2
PHANTOM
 70
     0
  3
Phantom ______  __  __  ______  __  __  ______
 72
    65
 73
     6
 40
12.7
 49
6.35
 74
     0
 49
-1.27
 74
     0
 49
1.27
 74
     0
 49
-1.27
 74
     0
 49
1.27
 74
     0
 49
-1.27
 74
     0
  0
LTYPE
  5
60
330
5
100
AcDbSymbolTableRecord
100
AcDbLinetypeTableRecord
  2
CENTER
 70
     0
  3
Center ____ _ ____ _ ____ _ ____ _ ____ _ ____
 72
    65
 73
     4
 40
10.16
 49
6.35
 74
     0
 49
-1.27
 74
     0
 49
1.27
 74
     0
 49
-1.27
 74
     0
  0
LTYPE
  5
61
330
5
100
AcDbSymbolTableRecord
100
AcDbLinetypeTableRecord
  2
CENTERX2
 70
     0
  3
Center (2x) ________  __  ________  __  _____
 72
    65
 73
     4
 40
20.32
 49
12.7
 74
     0
 49
-2.54
 74
     0
 49
2.54
 74
     0
 49
-2.54
 74
     0
  0
LTYPE
  5
62
330
5
100
AcDbSymbolTableRecord
100
AcDbLinetypeTableRecord
  2
DOT2
 70
     0
  3
Dot (.5x) ........................................
 72
    65
 73
     2
 40
0.635
 49
0.0
 74
     0
 49
-0.635
 74
     0
  0
ENDTAB
  0
TABLE
  2
LAYER
  5
2
330
0
100
AcDbSymbolTable
 70
     1
  0
LAYER
  5
10
330
2
100
AcDbSymbolTableRecord
100
AcDbLayerTableRecord
  2
0
 70
     0
 62
     7
  6
Continuous
370
    -3
390
F
  0
ENDTAB
  0
TABLE
  2
STYLE
  5
3
330
0
100
AcDbSymbolTable
 70
     2
  0
STYLE
  5
11
330
3
100
AcDbSymbolTableRecord
100
AcDbTextStyleTableRecord
  2
Standard
 70
     0
 40
0.0
 41
1.0
 50
0.0
 71
     0
 42
3.175
  3
txt
  4

  0
STYLE
  5
65
330
3
100
AcDbSymbolTableRecord
100
AcDbTextStyleTableRecord
  2
SLDTEXTSTYLE0
 70
     0
 40
0.0
 41
0.7
 50
0.0
 71
     0
 42
3.175
  3
TXT
  4

  0
ENDTAB
  0
TABLE
  2
VIEW
  5
6
330
0
100
AcDbSymbolTable
 70
     0
  0
ENDTAB
  0
TABLE
  2
UCS
  5
7
330
0
100
AcDbSymbolTable
 70
     0
  0
ENDTAB
  0
TABLE
  2
APPID
  5
9
330
0
100
AcDbSymbolTable
 70
     1
  0
APPID
  5
12
330
9
100
AcDbSymbolTableRecord
100
AcDbRegAppTableRecord
  2
ACAD
 70
     0
  0
ENDTAB
  0
TABLE
  2
DIMSTYLE
  5
A
330
0
100
AcDbSymbolTable
 70
     1
100
AcDbDimStyleTable
  0
DIMSTYLE
105
27
330
A
100
AcDbSymbolTableRecord
100
AcDbDimStyleTableRecord
  2
ISO-25
 70
     0
 41
2.5
 42
0.625
 43
3.75
 44
1.25
 73
     0
 74
     0
 77
     1
 78
     8
140
2.5
141
2.5
143
0.0393700787
147
0.625
171
     3
172
     1
178
     0
271
     2
272
     2
274
     3
278
    44
283
     0
284
     8
340
11
  0
ENDTAB
  0
TABLE
  2
BLOCK_RECORD
  5
1
330
0
100
AcDbSymbolTable
 70
     1
  0
BLOCK_RECORD
  5
1F
330
1
100
AcDbSymbolTableRecord
100
AcDbBlockTableRecord
  2
*Model_Space
340
22
  0
BLOCK_RECORD
  5
1B
330
1
100
AcDbSymbolTableRecord
100
AcDbBlockTableRecord
  2
*Paper_Space
340
1E
  0
BLOCK_RECORD
  5
23
330
1
100
AcDbSymbolTableRecord
100
AcDbBlockTableRecord
  2
*Paper_Space0
340
26
  0
ENDTAB
  0
ENDSEC
  0
SECTION
  2
BLOCKS
  0
BLOCK
  5
20
330
1F
100
AcDbEntity
  8
0
100
AcDbBlockBegin
  2
*Model_Space
 70
     0
 10
0.0
 20
0.0
 30
0.0
  3
*Model_Space
  1

  0
ENDBLK
  5
21
330
1F
100
AcDbEntity
  8
0
100
AcDbBlockEnd
  0
BLOCK
  5
1C
330
1B
100
AcDbEntity
 67
     1
  8
0
100
AcDbBlockBegin
  2
*Paper_Space
 70
     0
 10
0.0
 20
0.0
 30
0.0
  3
*Paper_Space
  1

  0
ENDBLK
  5
1D
330
1B
100
AcDbEntity
 67
     1
  8
0
100
AcDbBlockEnd
  0
BLOCK
  5
24
330
23
100
AcDbEntity
  8
0
100
AcDbBlockBegin
  2
*Paper_Space0
 70
     0
 10
0.0
 20
0.0
 30
0.0
  3
*Paper_Space0
  1

  0
ENDBLK
  5
25
330
23
100
AcDbEntity
  8
0
100
AcDbBlockEnd
  0
ENDSEC
  0
SECTION
  2
ENTITIES
  0
LINE
  5
63
330
1F
100
AcDbEntity
  8
0
  6
Continuous
 62
     7
100
AcDbLine
 10
157.2620888455
 20
972.5006800117
 30
0.0
 11
357.2620888455
 21
972.5006800117
 31
0.0
  0
SPLINE
  5
64
330
1F
100
AcDbEntity
  8
0
  6
Continuous
 62
     7
100
AcDbSpline
210
0.0
220
0.0
230
1.0
 70
     8
 71
     3
 72
   203
 73
   199
 74
     0
 42
0.00000001
 43
0.00000001
 40
0.0
 40
0.0
 40
0.0
 40
0.0
 40
0.0043156626062216
 40
0.0094029752504855
 40
0.0149731059725715
 40
0.0207836881458483
 40
0.0255081492701606
 40
0.0302996014459493
 40
0.0352363227830773
 40
0.0401763706790646
 40
0.0447153970263223
 40
0.0474013953009673
 40
0.0495337606015779
 40
0.0518804246397186
 40
0.0551771259588925
 40
0.0591534946786695
 40
0.0634803081080226
 40
0.0685908393267341
 40
0.0732779374133797
 40
0.0774787245930769
 40
0.0814200733778708
 40
0.0865261837662321
 40
0.0918211193931577
 40
0.0973279797771785
 40
0.1030072135184976
 40
0.108780264541263
 40
0.1145696930773284
 40
0.1203470663161164
 40
0.13154956766813
 40
0.142443058031945
 40
0.1528367712685544
 40
0.1625255477911058
 40
0.1665562191199406
 40
0.1703743334325116
 40
0.1741163219804482
 40
0.177949995418459
 40
0.1820632431588053
 40
0.1866607021256716
 40
0.1918712123887537
 40
0.1960983171179358
 40
0.2004478180618633
 40
0.2046926545565687
 40
0.2085967156034402
 40
0.2119190810811328
 40
0.214415968486274
 40
0.2152382346171786
 40
0.2157953969090443
 40
0.2160457484103227
 40
0.2160923176725697
 40
0.216193125367834
 40
0.216465174232861
 40
0.2169484321757585
 40
0.2177389054821923
 40
0.2191877782757517
 40
0.2212822214495496
 40
0.2239895861784083
 40
0.2284542379074905
 40
0.2337260898831358
 40
0.2396378505665489
 40
0.2460222290228205
 40
0.2540069359498643
 40
0.2621421280457255
 40
0.2701455823865736
 40
0.2777351022854197
 40
0.2846285403502902
 40
0.2906346480059238
 40
0.2975337926943492
 40
0.30392469972248
 40
0.3100718115191268
 40
0.3162573392497782
 40
0.322653636766782
 40
0.3290947802404389
 40
0.3353722872734285
 40
0.3393426447777591
 40
0.3433390573462987
 40
0.3475029435359391
 40
0.3519929712256296
 40
0.3568393217247531
 40
0.3616672183362399
 40
0.3652331647952012
 40
0.3685512685622702
 40
0.3717866184461685
 40
0.375048835269312
 40
0.3783484139740005
 40
0.3817289876808885
 40
0.3876541715363827
 40
0.3936957620927205
 40
0.3996741486508311
 40
0.4055773929015822
 40
0.4114304973669091
 40
0.4172568988201458
 40
0.4264170412841712
 40
0.435680395718948
 40
0.4451820977020594
 40
0.4510312006505117
 40
0.4568468685315886
 40
0.4625677281427861
 40
0.46817103216301
 40
0.4736883131507536
 40
0.4792161594927596
 40
0.4848405061412693
 40
0.4905663314072156
 40
0.4963410164434496
 40
0.5020729324128542
 40
0.5099129918815503
 40
0.5176949407750917
 40
0.5255841790843075
 40
0.5336897305757301
 40
0.5379546459933231
 40
0.5421572595872933
 40
0.5462713699672553
 40
0.5503229097063344
 40
0.5544122926828587
 40
0.5586356872015629
 40
0.562304493898728
 40
0.5659798035715226
 40
0.5696132786060121
 40
0.5731816868425261
 40
0.5780625416789055
 40
0.5833110605718039
 40
0.5888367433489697
 40
0.5936912564370193
 40
0.5985587467268348
 40
0.6033733415435597
 40
0.6082263825469637
 40
0.6131368964014575
 40
0.6180530583655661
 40
0.6229863902943542
 40
0.6265038414221779
 40
0.6301411568019126
 40
0.6338631094677556
 40
0.6374967395883812
 40
0.6408981255461336
 40
0.6438349539941056
 40
0.6466625969557377
 40
0.6496376220171197
 40
0.6528603143158924
 40
0.6574730526210154
 40
0.6622161703600088
 40
0.6668275373157824
 40
0.670128040300814
 40
0.6732895173912621
 40
0.676369965137486
 40
0.6795038594766187
 40
0.6828098209405243
 40
0.6862286442461478
 40
0.6896540453072503
 40
0.6929908515316847
 40
0.6958531284287562
 40
0.6987529918551949
 40
0.7018232760994474
 40
0.7049912908006268
 40
0.7091536484471552
 40
0.713202394929347
 40
0.7172535442340456
 40
0.723409491833568
 40
0.7295836812165365
 40
0.7356929990789101
 40
0.7417047357935791
 40
0.7472717208543525
 40
0.7528735955240582
 40
0.7585537890073853
 40
0.7642778290275839
 40
0.7699871430270676
 40
0.7756555873401783
 40
0.78131219973047
 40
0.7869758853116725
 40
0.7941090640323566
 40
0.801247038896848
 40
0.8083871476047414
 40
0.8155464560556738
 40
0.8226964213673841
 40
0.8298025909451684
 40
0.8368855797359213
 40
0.844013371695139
 40
0.8512198200295478
 40
0.8585051145617295
 40
0.8729580194253543
 40
0.8874060290831137
 40
0.8966547997895169
 40
0.905701667152513
 40
0.9144623802388772
 40
0.9228540457735734
 40
0.93086627663784
 40
0.9388660606495196
 40
0.9473459471223548
 40
0.9530208386438982
 40
0.9591771603585669
 40
0.9659284097903545
 40
0.9733716422894467
 40
0.9811730245110767
 40
0.9854115172336052
 40
0.9893667087603893
 40
0.9928936208153032
 40
0.9958472852035407
 40
0.9980827613822435
 40
0.9994552199304282
 40
0.9999999999999999
 40
0.9999999999999999
 40
0.9999999999999999
 40
0.9999999999999999
 10
-502.0127296447754
 20
6.527412344868632
 30
0.0
 10
-516.7750436834414
 20
7.139263508164015
 30
0.0
 10
-534.1824750632975
 20
7.710111864264459
 30
0.0
 10
-553.1853809194135
 20
9.305421618914956
 30
0.0
 10
-572.7340051882711
 20
12.99065697786049
 30
0.0
 10
-588.0603857858471
 20
18.15958364636998
 30
0.0
 10
-602.5267071824046
 20
25.89347746664654
 30
0.0
 10
-615.599209877737
 20
36.60614273684606
 30
0.0
 10
-626.7841723510031
 20
49.29208908560968
 30
0.0
 10
-635.6122803888926
 20
62.08061860549785
 30
0.0
 10
-640.1384958753163
 20
70.08527370619366
 30
0.0
 10
-643.182828257762
 20
76.72052483470173
 30
0.0
 10
-645.8471994305655
 20
84.29983289517953
 30
0.0
 10
-649.1503530417814
 20
95.09215627744518
 30
0.0
 10
-652.69551135238
 20
108.2358337798371
 30
0.0
 10
-655.9986868088096
 20
122.6760158024964
 30
0.0
 10
-658.9262986879484
 20
139.9256210419228
 30
0.0
 10
-660.2384400673483
 20
155.9185087229351
 30
0.0
 10
-659.7363958294746
 20
170.2914470121873
 30
0.0
 10
-657.3768605798823
 20
183.5770431326922
 30
0.0
 10
-651.5160134664131
 20
200.0464353107598
 30
0.0
 10
-642.8540407787114
 20
215.9706358512192
 30
0.0
 10
-631.9761244210326
 20
231.3690733411023
 30
0.0
 10
-619.4700187941497
 20
246.2565928419848
 30
0.0
 10
-605.9230063022841
 20
260.6479970544108
 30
0.0
 10
-591.7918850228734
 20
274.5463778928728
 30
0.0
 10
-577.2257419816789
 20
287.9272106348246
 30
0.0
 10
-547.815299651919
 20
312.5431976230005
 30
0.0
 10
-517.9248503718272
 20
334.8468541638078
 30
0.0
 10
-488.343143598662
 20
354.623561793585
 30
0.0
 10
-459.8874420956161
 20
371.668731019429
 30
0.0
 10
-447.8626557157522
 20
378.4381610845743
 30
0.0
 10
-436.3718835683372
 20
384.6694332943936
 30
0.0
 10
-424.849835852898
 20
390.269740764184
 30
0.0
 10
-412.6598285849565
 20
395.1344862506671
 30
0.0
 10
-399.1651777800346
 20
399.1590725105644
 30
0.0
 10
-383.7296471743636
 20
402.2386459469568
 30
0.0
 10
-365.9897418552469
 20
404.1121881110126
 30
0.0
 10
-351.5201680868404
 20
404.366238057552
 30
0.0
 10
-336.6435657678982
 20
403.7153090236159
 30
0.0
 10
-322.1669319411285
 20
402.4421572596192
 30
0.0
 10
-308.8985741764371
 20
400.8308341154932
 30
0.0
 10
-297.6468000437292
 20
399.1653909411685
 30
0.0
 10
-289.2199171129103
 20
397.7298790865761
 30
0.0
 10
-286.4526822861584
 20
397.2130280477155
 30
0.0
 10
-284.581849008939
 20
396.8408910252676
 30
0.0
 10
-283.7447308063794
 20
396.6569127892543
 30
0.0
 10
-283.5943702245471
 20
396.6038970325779
 30
0.0
 10
-283.2716954936914
 20
396.4814609382093
 30
0.0
 10
-282.3828134984724
 20
396.2033311409299
 30
0.0
 10
-280.7955664880777
 20
395.7365175498877
 30
0.0
 10
-278.1930308093138
 20
394.9945190060751
 30
0.0
 10
-273.4155157339314
 20
393.6602966158897
 30
0.0
 10
-266.5026232894743
 20
391.7556432715625
 30
0.0
 10
-257.5626076380042
 20
389.3086191971748
 30
0.0
 10
-242.8163557396803
 20
385.2860304835189
 30
0.0
 10
-225.402536939004
 20
380.541570884915
 30
0.0
 10
-205.8756156811798
 20
375.2189279336685
 30
0.0
 10
-184.7900564114127
 20
369.4617891620848
 30
0.0
 10
-158.4248045639282
 20
362.2407758165222
 30
0.0
 10
-131.5718871180079
 20
354.8500463400727
 30
0.0
 10
-105.1667869541531
 20
347.5320278672006
 30
0.0
 10
-80.14498695286548
 20
340.5291475323702
 30
0.0
 10
-57.44196999464636
 20
334.0838324700455
 30
0.0
 10
-37.71212618524491
 20
328.2921532167323
 30
0.0
 10
-15.3366029528412
 20
320.7272630606269
 30
0.0
 10
4.724861314039104
 20
311.9945270289455
 30
0.0
 10
22.95706337578986
 20
301.4834572602158
 30
0.0
 10
39.7812220205694
 20
288.6228019958572
 30
0.0
 10
55.30542218184925
 20
273.1783807807068
 30
0.0
 10
68.84321343315484
 20
255.7712866005944
 30
0.0
 10
79.58401156653174
 20
237.1562356024845
 30
0.0
 10
84.90959302074208
 20
224.6501295463521
 30
0.0
 10
89.7223608023468
 20
211.8425253221601
 30
0.0
 10
95.0577627499853
 20
198.6232562501316
 30
0.0
 10
101.9504578285275
 20
184.8832674690845
 30
0.0
 10
111.0727174530515
 20
171.024211109832
 30
0.0
 10
122.1609416131913
 20
158.7666479711485
 30
0.0
 10
131.9834916656849
 20
151.5168473973316
 30
0.0
 10
142.5648140361067
 20
147.3840466992207
 30
0.0
 10
153.6336654061461
 20
146.9736130268371
 30
0.0
 10
164.5809088761767
 20
149.1853755528051
 30
0.0
 10
175.1473110563705
 20
153.1802065942578
 30
0.0
 10
185.3576096625538
 20
158.6298860742801
 30
0.0
 10
201.9495704581732
 20
170.3003761161349
 30
0.0
 10
217.737156056183
 20
183.6634948767806
 30
0.0
 10
232.8739187079283
 20
197.4400967800607
 30
0.0
 10
247.5614539656557
 20
211.3227520554547
 30
0.0
 10
262.0113413109689
 20
225.2059642254672
 30
0.0
 10
276.4351602254728
 20
238.9842368126041
 30
0.0
 10
299.5573935919124
 20
260.1700420592492
 30
0.0
 10
323.958752760209
 20
280.4268235313144
 30
0.0
 10
350.4394541606918
 20
299.3201752243075
 30
0.0
 10
367.6014334858739
 20
309.6381421994579
 30
0.0
 10
385.4260938425244
 20
318.5096798896591
 30
0.0
 10
403.7497109640499
 20
325.4269026882204
 30
0.0
 10
422.4085605838565
 20
329.8819249884507
 30
0.0
 10
441.2389184353499
 20
331.3668611836592
 30
0.0
 10
460.0675875221875
 20
329.4599248977751
 30
0.0
 10
478.6479789864135
 20
324.4064007030997
 30
0.0
 10
496.6992376997173
 20
316.7630250545017
 30
0.0
 10
513.9403152261492
 20
307.0882914124257
 30
0.0
 10
530.0901758648986
 20
295.9406870977473
 30
0.0
 10
550.6999557284083
 20
278.745416509871
 30
0.0
 10
569.9175367122108
 20
260.293189019774
 30
0.0
 10
588.9729958783463
 20
241.1517030690382
 30
0.0
 10
608.8508481213596
 20
221.7885732008567
 30
0.0
 10
619.0836783610463
 20
211.3729248279018
 30
0.0
 10
628.5114022794266
 20
200.5041016182236
 30
0.0
 10
636.6025335725817
 20
188.9750220759519
 30
0.0
 10
642.8255859365916
 20
176.5786047052169
 30
0.0
 10
646.6511106737905
 20
163.1110936942444
 30
0.0
 10
647.7487725109388
 20
148.6937167003549
 30
0.0
 10
646.5545095615544
 20
136.1901922088181
 30
0.0
 10
643.4473975852242
 20
123.9971607710591
 30
0.0
 10
638.4719281549726
 20
112.5960603278803
 30
0.0
 10
631.6727649351226
 20
102.4462163355424
 30
0.0
 10
619.8620104582081
 20
90.6255132104521
 30
0.0
 10
605.2741011464313
 20
80.13424378711854
 30
0.0
 10
588.5876754499619
 20
71.22143960007953
 30
0.0
 10
573.1444753223865
 20
65.07939272810209
 30
0.0
 10
557.1129648225132
 20
60.53114078164426
 30
0.0
 10
540.8742797715597
 20
57.70300864752988
 30
0.0
 10
524.3329066529769
 20
56.1433130742269
 30
0.0
 10
507.5235451331092
 20
55.87484821122885
 30
0.0
 10
490.7740089176601
 20
57.52720327424697
 30
0.0
 10
474.4196456442089
 20
61.74552290819835
 30
0.0
 10
463.3862979132068
 20
66.5705705290223
 30
0.0
 10
452.8337249985718
 20
73.18198989470547
 30
0.0
 10
443.1697691053803
 20
81.48717918515148
 30
0.0
 10
435.1624226536123
 20
91.00747329258469
 30
0.0
 10
429.6027573819215
 20
101.2394672166067
 30
0.0
 10
427.3170489235844
 20
111.030660398245
 30
0.0
 10
428.3308060819755
 20
120.6580773215227
 30
0.0
 10
432.178064178348
 20
130.0887321905382
 30
0.0
 10
438.1277164407688
 20
139.380204836916
 30
0.0
 10
448.0672918688121
 20
151.6518650256946
 30
0.0
 10
458.7116365309809
 20
163.9149788798271
 30
0.0
 10
468.4708483361474
 20
176.3245850701686
 30
0.0
 10
474.5366952354372
 20
185.8579230226232
 30
0.0
 10
479.0554594918887
 20
195.6930635081765
 30
0.0
 10
481.6018002347706
 20
205.9271831105639
 30
0.0
 10
481.7524001768155
 20
216.6552437973852
 30
0.0
 10
479.3237152740538
 20
227.7097989413966
 30
0.0
 10
474.5951690178611
 20
238.416728782281
 30
0.0
 10
467.8990009493145
 20
248.0441115080971
 30
0.0
 10
459.5674506094911
 20
255.8600253069033
 30
0.0
 10
451.0480058422796
 20
260.701893073591
 30
0.0
 10
441.4523947366874
 20
263.2489226461238
 30
0.0
 10
430.9469850022471
 20
263.6020740978184
 30
0.0
 10
420.2159619334854
 20
262.0274729444226
 30
0.0
 10
406.7385413128813
 20
257.3986987480613
 30
0.0
 10
394.7602962711825
 20
250.4234573986912
 30
0.0
 10
384.0161073240938
 20
241.6528890878269
 30
0.0
 10
369.5440434573271
 20
226.3320114701385
 30
0.0
 10
356.1412051525726
 20
209.9866712469411
 30
0.0
 10
342.9084051133152
 20
193.7891571374649
 30
0.0
 10
329.0051395550594
 20
178.6134397533864
 30
0.0
 10
314.631507485047
 20
166.0977087877894
 30
0.0
 10
298.6478713572497
 20
155.4988623298133
 30
0.0
 10
281.6208120309758
 20
146.1048244488635
 30
0.0
 10
264.22640803719
 20
137.0790691784714
 30
0.0
 10
247.1407379068575
 20
127.5850705521683
 30
0.0
 10
230.9022366994504
 20
116.9588317581805
 30
0.0
 10
215.4231810569658
 20
105.3212140045215
 30
0.0
 10
200.4378877038385
 20
93.01614228721594
 30
0.0
 10
181.8904975536763
 20
77.12974260286289
 30
0.0
 10
163.1756621091621
 20
61.41540003932754
 30
0.0
 10
143.7654976376965
 20
46.55645510036826
 30
0.0
 10
123.2070141529654
 20
33.21069209394577
 30
0.0
 10
101.5099200977578
 20
21.87800749043866
 30
0.0
 10
78.86037789041305
 20
12.99691184683665
 30
0.0
 10
55.43184520449916
 20
6.741969568099069
 30
0.0
 10
31.36817602014567
 20
2.689464130412945
 30
0.0
 10
6.809143692508719
 20
0.3332109184719411
 30
0.0
 10
-18.10633731498324
 20
-0.8110244486775872
 30
0.0
 10
-67.58591187165871
 20
-0.495204420169739
 30
0.0
 10
-116.9777423519428
 20
2.172548096824853
 30
0.0
 10
-148.5503221420195
 20
4.574918347467996
 30
0.0
 10
-179.419653873935
 20
7.102224259594627
 30
0.0
 10
-209.3234343120347
 20
9.413217246963017
 30
0.0
 10
-237.9993602206638
 20
11.16664872333144
 30
0.0
 10
-265.4145689510544
 20
12.08127796163433
 30
0.0
 10
-292.8021293467914
 20
12.20695578120852
 30
0.0
 10
-321.8293407017242
 20
11.70710157294526
 30
0.0
 10
-341.2500110517925
 20
11.15881778713908
 30
0.0
 10
-362.3154845602074
 20
10.47344337331412
 30
0.0
 10
-385.4155747805634
 20
9.689200541824334
 30
0.0
 10
-410.884050711783
 20
8.845291892564662
 30
0.0
 10
-437.5794889310427
 20
8.006725622953905
 30
0.0
 10
-452.0837984593123
 20
7.573050284977366
 30
0.0
 10
-465.6191808106676
 20
7.186916221707352
 30
0.0
 10
-477.6895305940686
 20
6.864963786098055
 30
0.0
 10
-487.7987424184765
 20
6.623833331103674
 30
0.0
 10
-495.4507108928515
 20
6.480165209678405
 30
0.0
 10
-500.1493306261542
 20
6.45059977477644
 30
0.0
 10
-502.0128428433632
 20
6.527412344868632
 30
0.0
 10
-501.3917537205462
 20
6.497506279037248
 30
0.0
 10
-502.0128428433632
 20
6.527412344868632
 30
0.0
  0
MTEXT
  5
66
330
1F
100
AcDbEntity
  8
0
  6
Continuous
 62
     7
100
AcDbMText
 10
-659.9467589731
 20
-1.6178811941
 30
0.0
 40
4.83362
 41
0.0
 71
     1
 72
     1
  1
SOLIDWORKS Educational Product.
  7
SLDTEXTSTYLE0
 73
     1
 44
1.0
  0
MTEXT
  5
67
330
1F
100
AcDbEntity
  8
0
  6
Continuous
 62
     7
100
AcDbMText
 10
-659.9467589731
 20
-8.8683111941
 30
0.0
 40
4.83362
 41
0.0
 71
     1
 72
     1
  1
For Instructional Use Only.
  7
SLDTEXTSTYLE0
 73
     1
 44
1.0
  0
ENDSEC
  0
SECTION
  2
OBJECTS
  0
DICTIONARY
  5
C
330
0
100
AcDbDictionary
281
     1
  3
ACAD_GROUP
350
D
  3
ACAD_LAYOUT
350
1A
  3
ACAD_MLINESTYLE
350
17
  3
ACAD_PLOTSETTINGS
350
19
  3
ACAD_PLOTSTYLENAME
350
E
  3
ACAD_SCALELIST
350
47
  3
DWGPROPS
350
68
  0
DICTIONARY
  5
D
102
{ACAD_REACTORS
330
C
102
}
330
C
100
AcDbDictionary
281
     1
  0
DICTIONARY
  5
1A
102
{ACAD_REACTORS
330
C
102
}
330
C
100
AcDbDictionary
281
     1
  3
Layout1
350
1E
  3
Layout2
350
26
  3
Model
350
22
  0
DICTIONARY
  5
17
102
{ACAD_REACTORS
330
C
102
}
330
C
100
AcDbDictionary
281
     1
  3
Standard
350
18
  0
DICTIONARY
  5
19
102
{ACAD_REACTORS
330
C
102
}
330
C
100
AcDbDictionary
281
     1
  0
ACDBDICTIONARYWDFLT
  5
E
102
{ACAD_REACTORS
330
C
102
}
330
C
100
AcDbDictionary
281
     1
  3
Normal
350
F
100
AcDbDictionaryWithDefault
340
F
  0
DICTIONARY
  5
47
102
{ACAD_REACTORS
330
C
102
}
330
C
100
AcDbDictionary
281
     1
  3
A0
350
48
  3
A1
350
49
  3
A2
350
4A
  3
A3
350
4B
  3
A4
350
4C
  3
A5
350
4D
  3
A6
350
4E
  3
A7
350
4F
  3
A8
350
50
  3
A9
350
51
  3
B0
350
52
  3
B1
350
53
  3
B2
350
54
  3
B3
350
55
  3
B4
350
56
  3
B5
350
57
  3
B6
350
58
  0
XRECORD
  5
68
102
{ACAD_REACTORS
330
C
102
}
330
C
100
AcDbXrecord
280
     1
  1
DWGPROPS COOKIE
  2

  3

  4

  6

  7

  8
Connor
  9

300
=
301
=
302
=
303
=
304
=
305
=
306
=
307
=
308
=
309
=
 40
0.0
 41
2460253.911077813
 42
2460253.911103889
  1

 90
        0
  0
LAYOUT
  5
1E
102
{ACAD_REACTORS
330
1A
102
}
330
1A
100
AcDbPlotSettings
  1

  2
none_device
  4

  6

 40
0.0
 41
0.0
 42
0.0
 43
0.0
 44
0.0
 45
0.0
 46
0.0
 47
0.0
 48
0.0
 49
0.0
140
0.0
141
0.0
142
1.0
143
1.0
 70
   688
 72
     1
 73
     0
 74
     5
  7

 75
    16
147
1.0
148
0.0
149
0.0
100
AcDbLayout
  1
Layout1
 70
     1
 71
     1
 10
0.0
 20
0.0
 11
420.0
 21
297.0
 12
0.0
 22
0.0
 32
0.0
 14
1.0000000000E+20
 24
1.0000000000E+20
 34
1.0000000000E+20
 15
-1.0000000000E+20
 25
-1.0000000000E+20
 35
-1.0000000000E+20
146
0.0
 13
0.0
 23
0.0
 33
0.0
 16
1.0
 26
0.0
 36
0.0
 17
0.0
 27
1.0
 37
0.0
 76
     0
330
1B
  0
LAYOUT
  5
26
102
{ACAD_REACTORS
330
1A
102
}
330
1A
100
AcDbPlotSettings
  1

  2
none_device
  4

  6

 40
0.0
 41
0.0
 42
0.0
 43
0.0
 44
0.0
 45
0.0
 46
0.0
 47
0.0
 48
0.0
 49
0.0
140
0.0
141
0.0
142
1.0
143
1.0
 70
   688
 72
     1
 73
     0
 74
     5
  7

 75
    16
147
1.0
148
0.0
149
0.0
100
AcDbLayout
  1
Layout2
 70
     1
 71
     2
 10
0.0
 20
0.0
 11
0.0
 21
0.0
 12
0.0
 22
0.0
 32
0.0
 14
0.0
 24
0.0
 34
0.0
 15
0.0
 25
0.0
 35
0.0
146
0.0
 13
0.0
 23
0.0
 33
0.0
 16
1.0
 26
0.0
 36
0.0
 17
0.0
 27
1.0
 37
0.0
 76
     0
330
23
  0
LAYOUT
  5
22
102
{ACAD_REACTORS
330
1A
102
}
330
1A
100
AcDbPlotSettings
  1

  2
none_device
  4
ANSI_A_(11.00_x_8.50_Inches)
  6

 40
6.35
 41
19.05
 42
6.35000508
 43
19.05000254
 44
279.4
 45
215.9
 46
134.6827148775
 47
-13.9206320106
 48
0.0
 49
0.0
140
0.0
141
0.0
142
0.0083301708
143
1.0
 70
  1696
 72
     0
 73
     0
 74
     0
  7

 75
     0
147
0.0179189148
148
-1300.4909072572
149
0.0
100
AcDbLayout
  1
Model
 70
     1
 71
     0
 10
0.0
 20
0.0
 11
420.0
 21
297.0
 12
0.0
 22
0.0
 32
0.0
 14
-659.9467589731
 24
-0.5983148025
 34
0.0
 15
647.3493726232
 25
972.5006800117
 35
0.0
146
0.0
 13
0.0
 23
0.0
 33
0.0
 16
1.0
 26
0.0
 36
0.0
 17
0.0
 27
1.0
 37
0.0
 76
     0
330
1F
331
29
  0
MLINESTYLE
  5
18
102
{ACAD_REACTORS
330
17
102
}
330
17
100
AcDbMlineStyle
  2
Standard
 70
     0
  3

 62
   256
 51
90.0
 52
90.0
 71
     2
 49
0.5
 62
   256
  6
BYLAYER
 49
-0.5
 62
   256
  6
BYLAYER
  0
ACDBPLACEHOLDER
  5
F
102
{ACAD_REACTORS
330
E
102
}
330
E
  0
SCALE
  5
48
102
{ACAD_REACTORS
330
47
102
}
330
47
100
AcDbScale
 70
     0
300
1:1
140
1.0
141
1.0
290
     1
  0
SCALE
  5
49
102
{ACAD_REACTORS
330
47
102
}
330
47
100
AcDbScale
 70
     0
300
1:2
140
1.0
141
2.0
290
     0
  0
SCALE
  5
4A
102
{ACAD_REACTORS
330
47
102
}
330
47
100
AcDbScale
 70
     0
300
1:4
140
1.0
141
4.0
290
     0
  0
SCALE
  5
4B
102
{ACAD_REACTORS
330
47
102
}
330
47
100
AcDbScale
 70
     0
300
1:5
140
1.0
141
5.0
290
     0
  0
SCALE
  5
4C
102
{ACAD_REACTORS
330
47
102
}
330
47
100
AcDbScale
 70
     0
300
1:8
140
1.0
141
8.0
290
     0
  0
SCALE
  5
4D
102
{ACAD_REACTORS
330
47
102
}
330
47
100
AcDbScale
 70
     0
300
1:10
140
1.0
141
10.0
290
     0
  0
SCALE
  5
4E
102
{ACAD_REACTORS
330
47
102
}
330
47
100
AcDbScale
 70
     0
300
1:16
140
1.0
141
16.0
290
     0
  0
SCALE
  5
4F
102
{ACAD_REACTORS
330
47
102
}
330
47
100
AcDbScale
 70
     0
300
1:20
140
1.0
141
20.0
290
     0
  0
SCALE
  5
50
102
{ACAD_REACTORS
330
47
102
}
330
47
100
AcDbScale
 70
     0
300
1:30
140
1.0
141
30.0
290
     0
  0
SCALE
  5
51
102
{ACAD_REACTORS
330
47
102
}
330
47
100
AcDbScale
 70
     0
300
1:40
140
1.0
141
40.0
290
     0
  0
SCALE
  5
52
102
{ACAD_REACTORS
330
47
102
}
330
47
100
AcDbScale
 70
     0
300
1:50
140
1.0
141
50.0
290
     0
  0
SCALE
  5
53
102
{ACAD_REACTORS
330
47
102
}
330
47
100
AcDbScale
 70
     0
300
1:100
140
1.0
141
100.0
290
     0
  0
SCALE
  5
54
102
{ACAD_REACTORS
330
47
102
}
330
47
100
AcDbScale
 70
     0
300
2:1
140
2.0
141
1.0
290
     0
  0
SCALE
  5
55
102
{ACAD_REACTORS
330
47
102
}
330
47
100
AcDbScale
 70
     0
300
4:1
140
4.0
141
1.0
290
     0
  0
SCALE
  5
56
102
{ACAD_REACTORS
330
47
102
}
330
47
100
AcDbScale
 70
     0
300
8:1
140
8.0
141
1.0
290
     0
  0
SCALE
  5
57
102
{ACAD_REACTORS
330
47
102
}
330
47
100
AcDbScale
 70
     0
300
10:1
140
10.0
141
1.0
290
     0
  0
SCALE
  5
58
102
{ACAD_REACTORS
330
47
102
}
330
47
100
AcDbScale
 70
     0
300
100:1
140
100.0
141
1.0
290
     0
  0
ENDSEC
  0
EOF
